<svg xmlns="http://www.w3.org/2000/svg" xmlns:xlink="http://www.w3.org/1999/xlink" width="2880" zoomAndPan="magnify" viewBox="0 0 2160 1535.999932" height="2048" preserveAspectRatio="xMidYMid meet" version="1.0"><rect x="-216" width="2592" fill="#ffffff" y="-153.599993" height="1843.199919" fill-opacity="1"/><rect x="-216" width="2592" fill="#ebe3a4" y="-153.599993" height="1843.199919" fill-opacity="1"/><path fill="#ffffff" d="M 888.902344 1504.570312 C 816.679688 1504.570312 795.011719 1459.636719 770.050781 1373.515625 C 768.492188 1367.5625 768.125 1361.359375 768.964844 1355.265625 C 769.800781 1349.171875 771.835938 1343.304688 774.941406 1337.996094 C 778.210938 1331.328125 783.976562 1326.222656 790.988281 1323.78125 C 821.15625 1316.238281 852.105469 1315.6875 882.046875 1315.140625 C 923.1875 1314.410156 962.132812 1313.722656 1000.347656 1296.855469 C 1013.019531 1290.542969 1025.238281 1283.363281 1036.917969 1275.371094 C 1071.84375 1252.925781 1111.382812 1227.511719 1147.039062 1239.394531 C 1171.039062 1247.394531 1184.292969 1259.097656 1186.488281 1274.183594 C 1191.5625 1309.152344 1133.644531 1349.605469 1095.339844 1376.394531 C 1088.527344 1380.964844 1082.632812 1385.261719 1078.058594 1388.691406 C 1063.023438 1400.679688 1048.75 1413.59375 1035.320312 1427.363281 C 1002.542969 1459.363281 965.332031 1495.929688 921.585938 1502.101562 C 910.761719 1503.699219 899.84375 1504.519531 888.902344 1504.570312 Z M 794.371094 1337.082031 C 791.078125 1338.746094 788.441406 1341.464844 786.875 1344.808594 C 782.5 1352.332031 781.21875 1361.269531 783.308594 1369.71875 C 811.101562 1466.035156 830.117188 1501.28125 919.894531 1488.570312 C 959.207031 1482.996094 993.035156 1449.761719 1025.949219 1417.625 C 1039.796875 1403.425781 1054.53125 1390.113281 1070.058594 1377.765625 C 1074.632812 1374.199219 1080.800781 1370.039062 1087.703125 1365.195312 C 1118.925781 1343.390625 1176.980469 1302.796875 1173.140625 1276.195312 C 1171.722656 1266.640625 1161.574219 1258.6875 1142.925781 1252.46875 C 1113.488281 1242.640625 1076.871094 1266.183594 1044.554688 1286.9375 C 1032.269531 1295.355469 1019.394531 1302.871094 1006.015625 1309.425781 C 965.242188 1327.710938 923.140625 1328.304688 882.59375 1329.035156 C 853.246094 1329.355469 823.03125 1330.089844 794.371094 1337.082031 Z M 794.371094 1337.082031 " fill-opacity="1" fill-rule="nonzero"/><path fill="#ffffff" d="M 2104.386719 607.425781 C 2084.664062 607.3125 2065.480469 601.011719 2049.53125 589.417969 C 1990.105469 547.5 1965.238281 446.382812 1960.4375 398.75 C 1953.8125 332.332031 1979.363281 279.125 2004.046875 227.742188 C 2017.394531 199.949219 2031.15625 171.242188 2039.976562 140.433594 C 2047.382812 114.558594 2048.113281 81.464844 2049.121094 46.445312 C 2050.996094 -34.464844 2053.144531 -126.160156 2141.734375 -155.691406 C 2161.390625 -162.273438 2169.160156 -158.386719 2176.886719 -152.71875 C 2177.84375 -152.035156 2178.804688 -151.304688 2179.855469 -150.617188 C 2180.3125 -150.339844 2180.738281 -150.015625 2181.136719 -149.65625 L 2189.730469 -140.878906 C 2190.042969 -140.59375 2190.316406 -140.273438 2190.554688 -139.921875 C 2201.84375 -123.144531 2197 -89.910156 2191.332031 -72.863281 C 2167.46875 -1.320312 2143.105469 84.160156 2143.105469 175.585938 C 2143.105469 219.101562 2162.898438 252.792969 2183.878906 288.492188 C 2217.660156 346.046875 2255.96875 411.277344 2209.113281 528.480469 C 2192.839844 569.164062 2165.546875 595.359375 2130.257812 604.179688 C 2121.800781 606.320312 2113.113281 607.414062 2104.386719 607.425781 Z M 2158.644531 -145.453125 C 2154.222656 -145.191406 2149.859375 -144.265625 2145.710938 -142.710938 C 2066.261719 -116.195312 2064.34375 -33.367188 2062.46875 46.765625 C 2061.644531 82.699219 2060.867188 116.617188 2052.960938 144.226562 C 2043.816406 176.226562 2029.785156 205.390625 2016.390625 233.640625 C 1991.433594 285.660156 1967.84375 334.753906 1974.105469 397.378906 C 1979.410156 450.222656 2006.105469 541.96875 2057.394531 578.171875 C 2067.257812 585.347656 2078.617188 590.222656 2090.617188 592.417969 C 2102.621094 594.617188 2114.96875 594.09375 2126.738281 590.878906 C 2165.730469 581.140625 2186.164062 548.777344 2196.175781 523.363281 C 2240.5625 412.417969 2205.636719 352.949219 2171.855469 295.441406 C 2150.875 259.742188 2129.207031 222.851562 2129.207031 175.585938 C 2129.207031 82.195312 2153.9375 -4.613281 2178.121094 -77.203125 C 2183.332031 -92.792969 2186.53125 -120.128906 2179.308594 -131.738281 L 2171.71875 -139.464844 C 2170.667969 -140.148438 2169.664062 -140.878906 2168.65625 -141.613281 C 2165.902344 -144.070312 2162.339844 -145.4375 2158.644531 -145.453125 Z M 2158.644531 -145.453125 " fill-opacity="1" fill-rule="nonzero"/><path fill="#ffffff" d="M 868.058594 893.492188 C 865.195312 893.5 862.339844 893.300781 859.511719 892.898438 C 838.117188 889.835938 822.941406 875.4375 814.53125 850.066406 C 806.117188 824.695312 821.019531 800.378906 835.464844 776.925781 C 844.609375 762.207031 853.066406 748.265625 855.214844 735.285156 C 874.230469 621.003906 807.855469 546.492188 657.875 513.167969 L 651.65625 511.796875 C 629.441406 506.90625 606.496094 501.878906 586.699219 490.449219 C 585.28125 489.617188 583.972656 488.601562 582.816406 487.433594 C 580.199219 484.910156 578.390625 481.664062 577.628906 478.109375 C 576.863281 474.554688 577.175781 470.851562 578.527344 467.480469 C 579.875 464.105469 582.199219 461.207031 585.203125 459.160156 C 588.203125 457.113281 591.753906 456.003906 595.386719 455.984375 C 629.03125 455.113281 657.964844 452.644531 683.519531 450.496094 C 768.039062 443.414062 829.066406 438.292969 958.15625 495.660156 C 1043.636719 533.648438 1072.4375 601.210938 1048.574219 708.3125 C 1041.246094 741.675781 1027.761719 773.378906 1008.804688 801.792969 C 990.292969 828.445312 921.40625 893.492188 868.058594 893.492188 Z M 759.21875 459.824219 C 735.21875 459.824219 711.359375 461.835938 684.707031 464.074219 C 658.972656 466.269531 629.851562 468.644531 595.753906 469.605469 C 594.792969 469.546875 593.839844 469.789062 593.027344 470.300781 C 592.21875 470.8125 591.585938 471.566406 591.226562 472.457031 C 590.871094 473.34375 590.800781 474.328125 591.03125 475.257812 C 591.257812 476.191406 591.773438 477.027344 592.507812 477.652344 C 592.828125 477.960938 593.179688 478.234375 593.558594 478.472656 C 611.523438 488.851562 633.417969 493.648438 654.582031 498.3125 L 660.847656 499.683594 C 819.238281 534.882812 889.40625 614.878906 868.746094 737.386719 C 866.140625 753.019531 856.492188 768.699219 847.167969 783.921875 C 833.730469 805.726562 821.066406 826.34375 827.511719 845.632812 C 834.277344 865.929688 845.386719 876.898438 861.476562 879.230469 C 906.914062 885.765625 978.363281 821.496094 997.515625 793.839844 C 1015.382812 766.824219 1028.148438 736.769531 1035.183594 705.160156 C 1057.625 604.179688 1032.164062 543.339844 952.582031 508.003906 C 866 469.605469 812.199219 459.824219 759.21875 459.824219 Z M 759.21875 459.824219 " fill-opacity="1" fill-rule="nonzero"/><path fill="#ffffff" d="M 804.0625 -274.085938 C 799.855469 -246.203125 793.273438 -210.089844 779.46875 -178.089844 C 755.546875 -123.90625 724.476562 -73.171875 687.085938 -27.242188 C 668.800781 -4.796875 643.519531 14.8125 618.929688 33.832031 C 612.207031 38.996094 605.625 44.070312 599.363281 49.144531 C 577.148438 67.152344 551.640625 80.660156 524.257812 88.914062 C 374.367188 134.214844 305.480469 12.941406 238.878906 -104.355469 C 187.910156 -194.042969 139.773438 -278.976562 58.132812 -288.988281 C 16.992188 -294.109375 -23.828125 -289.308594 -64.464844 -280.300781 L -64.464844 -266.222656 C -24.101562 -275.367188 16.445312 -280.394531 56.441406 -275.367188 C 131.273438 -266.222656 177.761719 -184.214844 226.949219 -97.589844 C 283.402344 1.832031 346.300781 112.6875 463.597656 112.6875 C 485.558594 112.464844 507.363281 109.027344 528.328125 102.492188 C 557.398438 93.761719 584.484375 79.429688 608.046875 60.296875 C 614.265625 55.316406 620.800781 50.285156 627.429688 45.121094 C 652.664062 25.648438 678.71875 5.535156 697.871094 -18.144531 C 736.066406 -65.144531 767.796875 -117.046875 792.222656 -172.46875 C 806.667969 -206.113281 813.433594 -243.367188 817.730469 -272.074219 C 823.53125 -306.101562 823.902344 -340.832031 818.828125 -374.972656 L 805.113281 -374.972656 C 809.957031 -346.949219 810.140625 -313.902344 804.0625 -274.085938 Z M 804.0625 -274.085938 " fill-opacity="1" fill-rule="nonzero"/><path fill="#ffffff" d="M 2221.132812 1069.53125 C 2204.070312 1068.226562 2186.9375 1068.015625 2169.847656 1068.890625 C 2077.691406 1074.328125 1994.953125 1119.171875 1914.910156 1162.324219 C 1857.128906 1193.546875 1797.339844 1225.863281 1735.214844 1242.414062 C 1582.125 1283.277344 1459.433594 1235.328125 1380.492188 1103.722656 C 1355.394531 1061.941406 1337.976562 1028.984375 1342.046875 984.460938 C 1347.851562 920.460938 1371.121094 865.609375 1395.757812 807.78125 C 1408.007812 778.984375 1420.671875 749.179688 1431.003906 718.140625 C 1445.21875 675.445312 1447.367188 634.535156 1449.652344 591.199219 C 1450.382812 577.484375 1451.117188 562.859375 1452.351562 548.503906 C 1454.453125 522.859375 1462.589844 496.894531 1470.632812 471.800781 C 1477.148438 452.414062 1482.460938 432.640625 1486.542969 412.601562 C 1499.113281 343.578125 1464.554688 221.070312 1416.738281 165.347656 C 1356.398438 94.902344 1269 64.503906 1157.003906 74.972656 C 1043.179688 85.625 939.78125 135.175781 888.261719 163.792969 C 811.695312 206.347656 676.160156 268.929688 629.121094 210.144531 C 626.246094 206.636719 624.152344 202.566406 622.96875 198.195312 C 621.785156 193.820312 621.546875 189.242188 622.265625 184.773438 C 626.242188 153.230469 665.644531 116.207031 688.273438 99.109375 C 705.917969 85.898438 724.84375 72.730469 743.128906 60.023438 C 832.539062 -2.054688 924.96875 -66.277344 943.027344 -183.667969 C 954.316406 -257.171875 946.453125 -315.410156 923.644531 -374.789062 L 908.832031 -374.789062 C 932.328125 -315.683594 940.832031 -258.316406 929.449219 -185.769531 C 912.125 -74.371094 822.347656 -11.882812 735.128906 48.59375 C 716.84375 61.347656 697.691406 74.605469 679.863281 87.957031 C 673.144531 93.03125 614.128906 138.238281 608.460938 182.855469 C 607.519531 189.148438 607.902344 195.570312 609.585938 201.714844 C 611.269531 207.851562 614.21875 213.570312 618.242188 218.507812 C 643.382812 249.957031 690.511719 255.765625 758.394531 235.742188 C 798.210938 223.996094 844.058594 203.742188 894.753906 175.585938 C 945.449219 147.425781 1046.746094 98.835938 1158.101562 88.457031 C 1265.386719 78.398438 1348.859375 107.246094 1406.179688 174.078125 C 1450.976562 226.324219 1484.621094 345.40625 1472.875 409.949219 C 1468.878906 429.429688 1463.703125 448.644531 1457.378906 467.503906 C 1449.285156 493.328125 1440.921875 520.027344 1438.683594 547.179688 C 1437.449219 561.761719 1436.671875 576.296875 1435.9375 590.332031 C 1433.746094 632.707031 1431.640625 672.613281 1417.972656 713.753906 C 1407.828125 744.242188 1395.117188 773.773438 1383.140625 802.296875 C 1359.1875 858.707031 1334.367188 917.035156 1328.289062 983.132812 C 1323.714844 1031.679688 1343.050781 1068.113281 1368.605469 1110.671875 C 1432.007812 1216.3125 1522.242188 1270.34375 1633.140625 1270.34375 C 1668.800781 1270.046875 1704.273438 1265.082031 1738.644531 1255.578125 C 1802.367188 1238.617188 1862.84375 1205.890625 1921.492188 1174.300781 C 2000.207031 1131.742188 2081.484375 1087.722656 2170.714844 1082.511719 C 2187.472656 1081.648438 2204.265625 1081.859375 2220.996094 1083.152344 Z M 2221.132812 1069.53125 " fill-opacity="1" fill-rule="nonzero"/><path fill="#ffffff" d="M 2221.132812 842.433594 C 2149.152344 866.511719 2079.40625 896.828125 2012.6875 933.035156 C 1989.011719 946.347656 1966.257812 961.238281 1944.578125 977.601562 C 1921.125 994.46875 1896.898438 1011.933594 1871.027344 1024.867188 C 1789.019531 1066.011719 1640.273438 1066.011719 1571.429688 1004.847656 C 1477.8125 921.605469 1505.101562 819.257812 1531.476562 720.246094 C 1541.535156 682.578125 1558.402344 635.722656 1576.320312 586.078125 C 1637.847656 415.300781 1714.460938 202.738281 1630.351562 76.570312 C 1536.6875 -63.902344 1330.207031 -56.269531 1168.203125 -2.28125 C 1155.3125 2.015625 1139.3125 9.238281 1122.492188 16.917969 C 1070.152344 40.550781 998.613281 73.003906 959.117188 43.382812 C 947.277344 34.515625 940.832031 25.097656 939.371094 14.953125 C 936.535156 -5.253906 953.402344 -27.5625 969.675781 -49.046875 C 976.074219 -57.457031 982.109375 -65.457031 987.09375 -73.457031 C 993.765625 -84.105469 1000.804688 -94.847656 1008.121094 -106.230469 C 1054.976562 -178.59375 1108.136719 -260.554688 1098.402344 -348.503906 C 1097.378906 -357.441406 1095.683594 -366.289062 1093.328125 -374.972656 L 1079.109375 -374.972656 C 1081.777344 -365.789062 1083.671875 -356.402344 1084.78125 -346.90625 C 1093.921875 -263.984375 1042.222656 -184.214844 996.601562 -113.773438 C 989.195312 -102.34375 982.203125 -91.558594 975.480469 -80.816406 C 970.910156 -73.320312 964.921875 -65.59375 958.75 -57.363281 C 940.742188 -33.59375 922.183594 -9 925.792969 16.871094 C 927.757812 30.585938 936.214844 43.339844 950.890625 54.355469 C 996.601562 88.824219 1069.738281 55.863281 1128.070312 29.394531 C 1144.664062 21.898438 1160.296875 14.8125 1172.5 10.746094 C 1329.703125 -41.640625 1529.558594 -49.867188 1618.925781 84.207031 C 1699.195312 204.613281 1623.90625 413.5625 1563.382812 581.417969 C 1545.417969 631.335938 1528.414062 678.507812 1518.222656 716.722656 C 1490.792969 819.714844 1462.359375 926.269531 1562.332031 1015.085938 C 1597.074219 1045.988281 1652.019531 1064.410156 1716.929688 1066.96875 C 1721.960938 1066.96875 1726.988281 1067.289062 1732.015625 1067.289062 C 1785.5 1067.289062 1838.800781 1056.273438 1877.152344 1037.121094 C 1904.03125 1023.679688 1928.714844 1005.898438 1952.578125 988.710938 C 1973.777344 972.726562 1996.011719 958.15625 2019.132812 945.101562 C 2083.855469 910.039062 2151.429688 880.523438 2221.132812 856.878906 Z M 2221.132812 842.433594 " fill-opacity="1" fill-rule="nonzero"/><path fill="#ffffff" d="M 2221.132812 777.886719 L 2214.09375 779.761719 C 2182.097656 788.539062 2153.296875 805.3125 2125.640625 821.496094 C 2111.929688 829.40625 2098.214844 837.632812 2083.953125 844.671875 C 2002.21875 885.539062 1811.097656 934.679688 1739.558594 862.957031 C 1576.136719 699.71875 1677.710938 445.878906 1751.855469 260.425781 C 1757.203125 246.714844 1764.015625 233.59375 1771.191406 219.285156 C 1785.363281 191.355469 1799.988281 162.464844 1803.828125 131.839844 C 1810.777344 76.25 1765.386719 44.984375 1725.34375 17.144531 C 1679.035156 -14.851562 1639.039062 -42.28125 1667.835938 -100.105469 C 1675.46875 -115.417969 1687.539062 -129.820312 1699.242188 -143.804688 C 1702.898438 -148.378906 1706.554688 -152.539062 1710.027344 -156.878906 C 1727.125 -178.273438 1758.664062 -173.472656 1786.460938 -169.269531 C 1791.304688 -168.535156 1795.96875 -167.804688 1800.445312 -167.257812 C 1861.289062 -159.621094 2003.820312 -132.46875 2013.601562 -44.429688 C 2020.824219 20.34375 1990.378906 67.839844 1958.199219 118.078125 C 1945.042969 137.902344 1932.929688 158.386719 1921.902344 179.472656 C 1911.664062 200.179688 1901.652344 219.285156 1892.007812 237.570312 C 1827.691406 359.210938 1785.226562 439.574219 1874.910156 596.5 C 1896.257812 633.894531 1942.199219 699.628906 2009.898438 719.925781 C 2065.667969 736.65625 2143.972656 726.871094 2221.179688 697.066406 L 2221.179688 681.984375 C 2145.160156 712.199219 2067.175781 722.851562 2013.832031 706.851562 C 1950.703125 687.925781 1907.140625 625.347656 1886.796875 589.734375 C 1800.859375 439.34375 1839.714844 365.746094 1904.121094 244.015625 C 1913.859375 225.730469 1923.914062 206.53125 1934.246094 185.917969 C 1944.996094 165.234375 1956.835938 145.136719 1969.71875 125.714844 C 2001.71875 75.429688 2034.902344 23.867188 2027.179688 -45.707031 C 2016.34375 -143.441406 1866.179688 -172.605469 1802.136719 -180.605469 C 1797.566406 -181.152344 1792.996094 -181.882812 1788.425781 -182.570312 C 1758.527344 -187.140625 1721.273438 -192.808594 1699.195312 -165.199219 C 1695.8125 -160.949219 1692.246094 -156.695312 1688.636719 -152.355469 C 1675.835938 -138.234375 1664.714844 -122.679688 1655.492188 -106.003906 C 1621.347656 -37.753906 1670.214844 -3.972656 1717.433594 28.664062 C 1757.84375 56.640625 1796.058594 83.019531 1790.117188 130.375 C 1786.597656 158.625 1772.515625 186.417969 1758.847656 213.296875 C 1751.855469 227.011719 1744.632812 241.410156 1739.011719 255.398438 C 1663.449219 444.328125 1559.957031 703.011719 1729.867188 872.832031 C 1759.304688 902.316406 1805.839844 913.378906 1857.039062 913.378906 C 1940.324219 913.378906 2035.910156 884.03125 2090.167969 856.96875 C 2104.707031 849.699219 2118.921875 841.382812 2132.636719 833.335938 C 2159.515625 817.566406 2187.492188 801.335938 2217.796875 793.019531 L 2221.226562 792.058594 Z M 2221.132812 777.886719 " fill-opacity="1" fill-rule="nonzero"/><path fill="#ffffff" d="M 1344.242188 1861.71875 C 1328.46875 1782.910156 1249.527344 1760.285156 1179.675781 1740.355469 C 1127.382812 1725.359375 1077.96875 1711.234375 1065.078125 1676.082031 C 1054.378906 1647.054688 1068.367188 1604.132812 1107.863281 1544.890625 C 1125.925781 1517.046875 1151.203125 1494.628906 1181.003906 1480.023438 C 1220.132812 1460.460938 1254.78125 1431.476562 1286.871094 1391.386719 C 1296.929688 1378.863281 1304.015625 1362.957031 1310.871094 1347.597656 C 1327.191406 1311.027344 1342.871094 1276.101562 1396.765625 1276.101562 C 1404.863281 1276.148438 1412.949219 1276.824219 1420.945312 1278.113281 C 1462.085938 1284.421875 1483.480469 1303.988281 1506.199219 1324.695312 C 1540.710938 1356.191406 1576.414062 1388.691406 1680.222656 1371.457031 C 1786.09375 1353.8125 1899.640625 1303.164062 2000.207031 1258.503906 L 2017.945312 1250.59375 C 2039.085938 1240.679688 2059.632812 1229.535156 2079.472656 1217.226562 C 2112.339844 1197.707031 2146.351562 1177.457031 2184.609375 1169.867188 C 2196.90625 1167.398438 2209.203125 1165.570312 2221.179688 1164.335938 L 2221.179688 1150.621094 C 2208.105469 1151.949219 2194.941406 1153.867188 2181.730469 1156.519531 C 2141.320312 1164.566406 2106.304688 1185.410156 2072.433594 1205.523438 C 2053.050781 1217.566406 2032.980469 1228.464844 2012.320312 1238.160156 L 1994.539062 1246.070312 C 1895.023438 1290.410156 1782.160156 1340.695312 1677.984375 1358.019531 C 1580.847656 1374.246094 1549.078125 1345.308594 1515.476562 1314.636719 C 1492.257812 1293.472656 1468.257812 1271.621094 1423.09375 1264.628906 C 1338.710938 1251.601562 1317.269531 1299.691406 1298.390625 1342.109375 C 1292.703125 1356.574219 1285.257812 1370.28125 1276.222656 1382.929688 C 1245.367188 1421.421875 1212.222656 1449.214844 1174.921875 1467.863281 C 1143.085938 1483.59375 1116.046875 1507.570312 1096.617188 1537.300781 C 1053.921875 1601.296875 1039.84375 1647.011719 1052.324219 1680.835938 C 1067.636719 1722.480469 1120.296875 1737.566406 1176.019531 1753.519531 C 1245.136719 1773.3125 1316.628906 1793.792969 1330.753906 1864.417969 C 1333.792969 1879.671875 1335.824219 1895.105469 1336.835938 1910.632812 L 1350.550781 1910.632812 C 1349.519531 1894.207031 1347.414062 1877.863281 1344.242188 1861.71875 Z M 1344.242188 1861.71875 " fill-opacity="1" fill-rule="nonzero"/><path fill="#ffffff" d="M 2221.132812 1637.226562 C 2206.828125 1643.308594 2192.703125 1649.433594 2178.804688 1655.511719 C 2090.03125 1694.046875 2006.195312 1730.433594 1907.414062 1750.226562 C 1854.617188 1760.785156 1793.132812 1771.253906 1782.894531 1770.25 C 1748.152344 1746.25 1700.613281 1663.558594 1691.46875 1626.484375 C 1671.765625 1547.722656 1747.511719 1492.410156 1808.402344 1447.980469 C 1818.6875 1440.4375 1828.421875 1433.351562 1837.382812 1426.359375 C 1871.164062 1400.117188 1906.773438 1395.640625 1944.484375 1390.886719 C 1968.242188 1388.664062 1991.71875 1384.070312 2014.5625 1377.171875 C 2043.027344 1366.832031 2070.773438 1354.617188 2097.621094 1340.601562 C 2130.761719 1324.238281 2165 1307.324219 2198.828125 1298.867188 C 2206.09375 1297.039062 2213.59375 1295.667969 2221.179688 1294.523438 L 2221.179688 1280.8125 C 2212.535156 1282.007812 2203.960938 1283.660156 2195.488281 1285.746094 C 2160.246094 1294.570312 2125.320312 1311.804688 2091.539062 1328.488281 C 2065.257812 1342.207031 2038.089844 1354.164062 2010.21875 1364.28125 C 1988.222656 1370.917969 1965.621094 1375.34375 1942.75 1377.492188 C 1904.851562 1382.292969 1865.722656 1387.226562 1828.972656 1415.796875 C 1820.195312 1422.609375 1810.6875 1429.511719 1800.308594 1437.144531 C 1736.3125 1484 1656.226562 1542.285156 1678.167969 1630.050781 C 1688.222656 1670.367188 1737.179688 1756.445312 1776.171875 1782.453125 C 1776.996094 1783.003906 1778.320312 1783.871094 1784.492188 1783.871094 C 1796.605469 1783.871094 1827.554688 1780.398438 1910.109375 1763.894531 C 2010.355469 1743.828125 2094.832031 1707.167969 2184.382812 1668.3125 L 2221.273438 1652.402344 Z M 2221.132812 1637.226562 " fill-opacity="1" fill-rule="nonzero"/><path fill="#ffffff" d="M 2221.132812 1539.402344 C 2204.542969 1545.757812 2188.128906 1552.339844 2171.855469 1558.832031 C 2103.882812 1586.257812 2033.53125 1614.371094 1958.929688 1621.136719 C 1907.960938 1625.707031 1877.289062 1619.765625 1874.730469 1604.679688 C 1869.289062 1572.683594 1965.832031 1500.503906 2022.789062 1486.242188 C 2077.277344 1472.527344 2135.105469 1457.078125 2188.863281 1435.589844 C 2196.953125 1432.347656 2208.0625 1428.324219 2221.132812 1423.890625 L 2221.132812 1409.582031 C 2204.222656 1415.203125 2190.964844 1419.957031 2183.789062 1422.839844 C 2130.761719 1444.046875 2073.484375 1459.40625 2019.453125 1473.121094 C 1965.421875 1486.835938 1853.5625 1562.03125 1861.242188 1607.148438 C 1865.402344 1631.789062 1898.957031 1636.769531 1927.296875 1636.769531 C 1940.644531 1636.769531 1952.804688 1635.671875 1960.164062 1634.988281 C 2036.777344 1628.039062 2108.042969 1599.421875 2176.976562 1571.769531 C 2191.558594 1565.917969 2206.277344 1560.019531 2221.132812 1554.261719 Z M 2221.132812 1539.402344 " fill-opacity="1" fill-rule="nonzero"/><path fill="#ffffff" d="M 1650.648438 1731.761719 C 1614.949219 1705.019531 1592.824219 1678.960938 1574.265625 1641.796875 C 1558.082031 1609.433594 1549.488281 1574.921875 1541.167969 1541.550781 C 1530.5625 1498.855469 1519.546875 1454.699219 1492.621094 1414.289062 C 1481.375 1397.421875 1463.730469 1387.683594 1440.144531 1385.308594 C 1397.402344 1381.101562 1350 1402.542969 1342.09375 1410.449219 C 1327.371094 1425.167969 1313.660156 1437.191406 1301.546875 1447.796875 C 1265.707031 1479.246094 1239.835938 1501.964844 1225.527344 1559.195312 C 1214.28125 1604.085938 1269.042969 1636.222656 1327.007812 1670.230469 C 1376.652344 1699.394531 1427.984375 1729.65625 1435.390625 1766.59375 C 1439.457031 1785.609375 1434.886719 1828.347656 1430.316406 1877.625 C 1429.265625 1888.277344 1428.167969 1899.339844 1427.117188 1910.632812 L 1440.832031 1910.632812 C 1441.835938 1899.796875 1442.886719 1889.191406 1443.894531 1878.953125 C 1449.058594 1826.429688 1453.035156 1784.921875 1448.96875 1763.894531 C 1440.328125 1720.789062 1386.296875 1689.109375 1334.046875 1658.390625 C 1280.609375 1627.078125 1230.1875 1597.457031 1238.921875 1562.398438 C 1252.175781 1509.324219 1275.488281 1488.890625 1310.6875 1457.992188 C 1322.9375 1447.25 1336.835938 1435.132812 1351.828125 1420.003906 C 1356.949219 1414.882812 1394.113281 1398.382812 1428.992188 1398.382812 C 1432.328125 1398.382812 1435.621094 1398.382812 1438.863281 1398.839844 C 1458.109375 1400.757812 1472.417969 1408.484375 1481.285156 1421.695312 C 1506.882812 1460.09375 1517.078125 1501.144531 1527.910156 1544.613281 C 1536.414062 1578.714844 1545.144531 1613.960938 1562.011719 1647.695312 C 1581.625 1686.917969 1604.9375 1714.390625 1642.421875 1742.503906 C 1681.960938 1772.125 1674.96875 1847.367188 1664.085938 1910.402344 L 1677.800781 1910.402344 C 1689.183594 1844.53125 1695.675781 1765.542969 1650.648438 1731.761719 Z M 1650.648438 1731.761719 " fill-opacity="1" fill-rule="nonzero"/><path fill="#ffffff" d="M 1280.425781 1132.703125 C 1221.320312 1093.300781 1131.175781 1146.417969 1044.003906 1197.433594 C 994.910156 1226.277344 948.511719 1253.476562 913.816406 1259.785156 C 821.84375 1276.515625 738.328125 1271.851562 641.328125 1259.785156 C 621.214844 1257.269531 598.265625 1248.492188 574.039062 1239.210938 C 531.296875 1222.847656 487.1875 1205.980469 448.375 1218.917969 C 404.859375 1233.40625 392.929688 1319.484375 383.375 1388.601562 C 378.804688 1420.050781 374.871094 1449.808594 368.792969 1462.289062 C 366.230469 1465.214844 351.558594 1472.984375 337.433594 1480.574219 C 270.558594 1516.183594 131.410156 1590.28125 82.542969 1721.886719 C 65.949219 1766.546875 51.140625 1822.042969 84.144531 1855 C 125.285156 1896.140625 209.898438 1855.914062 260.453125 1831.914062 C 268.683594 1827.984375 275.8125 1824.601562 281.617188 1822.132812 C 389.316406 1775.964844 539.296875 1731.714844 641.96875 1783.046875 C 693.4375 1808.785156 745.367188 1859.570312 784.039062 1910.722656 L 801.363281 1910.722656 C 761 1855.046875 704.957031 1799.230469 648.09375 1770.796875 C 613.441406 1753.472656 573.949219 1746.433594 532.625 1746.433594 C 445.769531 1746.433594 350.964844 1777.472656 276.226562 1809.515625 C 270.191406 1812.074219 262.96875 1815.550781 254.558594 1819.527344 C 207.246094 1841.972656 128.074219 1879.546875 93.835938 1845.308594 C 66.40625 1817.882812 80.121094 1767.597656 95.386719 1726.6875 C 142.472656 1599.789062 278.375 1527.425781 343.878906 1492.59375 C 369.84375 1478.882812 378.207031 1474.308594 380.953125 1468.640625 C 388.082031 1454.332031 392.195312 1424.710938 396.949219 1390.429688 C 405.542969 1328.488281 417.292969 1243.648438 452.71875 1231.851562 C 486.820312 1220.472656 528.648438 1236.425781 569.101562 1251.964844 C 594.199219 1261.566406 617.832031 1270.617188 639.589844 1273.359375 C 737.917969 1285.609375 822.4375 1290.320312 916.285156 1273.359375 C 953.355469 1266.640625 1000.761719 1238.800781 1050.953125 1209.363281 C 1130.582031 1162.597656 1220.863281 1109.574219 1272.792969 1144.175781 C 1315.625 1172.746094 1283.855469 1234.046875 1262.828125 1274.59375 C 1260.632812 1278.800781 1258.578125 1282.777344 1256.746094 1286.433594 C 1229.59375 1340.738281 1149.554688 1440.207031 1090.769531 1466.308594 L 1082.585938 1469.921875 C 1025.992188 1494.878906 931.324219 1536.660156 922 1602.027344 C 909.566406 1688.882812 988.554688 1750.820312 1072.164062 1816.234375 C 1110.835938 1846.453125 1149.875 1877.125 1179.859375 1910.722656 L 1198.144531 1910.722656 C 1166.464844 1872.554688 1122.996094 1838.542969 1080.664062 1805.585938 C 1000.257812 1742.730469 924.332031 1683.351562 935.621094 1604.175781 C 943.894531 1546.304688 1037.742188 1504.890625 1088.160156 1482.675781 L 1096.390625 1479.019531 C 1158.789062 1451.269531 1240.335938 1350.15625 1269.042969 1292.742188 L 1275.03125 1281.085938 C 1296.882812 1238.664062 1333.453125 1168.085938 1280.425781 1132.703125 Z M 1280.425781 1132.703125 " fill-opacity="1" fill-rule="nonzero"/><path fill="#ffffff" d="M 976.808594 1866.609375 C 957.652344 1839.777344 940.648438 1810.066406 924.191406 1781.3125 C 913.953125 1763.4375 903.347656 1744.742188 892.195312 1727.371094 C 872.539062 1695.921875 863.761719 1659.71875 855.304688 1624.65625 C 845.886719 1585.984375 836.199219 1545.984375 811.878906 1511.929688 C 778.1875 1464.710938 733.34375 1443.363281 690.011719 1422.335938 C 663.726562 1409.671875 636.480469 1396.554688 611.339844 1377.71875 C 603.203125 1371.59375 594.242188 1359.710938 584.78125 1347.140625 C 561.011719 1315.507812 531.390625 1276.148438 489.746094 1296.855469 C 468.167969 1307.644531 455.050781 1320.898438 449.65625 1337.402344 C 440.515625 1364.828125 456.011719 1394.632812 469.496094 1420.828125 C 480.007812 1441.167969 489.929688 1460.460938 484.398438 1471.566406 C 474.660156 1491.039062 445.359375 1500.226562 419.488281 1508.136719 C 407.503906 1511.496094 395.796875 1515.773438 384.472656 1520.9375 C 361.339844 1532.5 158.972656 1636.542969 179.636719 1725.632812 C 180.300781 1729.519531 181.972656 1733.164062 184.480469 1736.203125 C 186.992188 1739.238281 190.253906 1741.570312 193.945312 1742.960938 C 221.917969 1753.289062 280.203125 1712.925781 342.554688 1667.03125 C 353.5625 1658.425781 365.019531 1650.414062 376.882812 1643.03125 C 462.179688 1600.429688 586.699219 1574.96875 658.515625 1619.855469 C 792.496094 1703.601562 824.265625 1762.933594 872.355469 1852.714844 C 881.957031 1870.632812 892.195312 1889.742188 903.941406 1910.355469 L 919.757812 1910.355469 C 906.410156 1887.226562 895.027344 1866.015625 884.421875 1846.359375 C 837.066406 1757.90625 802.875 1694 665.78125 1608.292969 C 635.566406 1589.457031 599.316406 1582.191406 561.925781 1582.191406 C 490.75 1582.191406 415.648438 1608.472656 370.757812 1630.875 C 358.074219 1638.53125 345.863281 1646.941406 334.1875 1656.0625 C 294.921875 1684.996094 221.828125 1738.800781 198.46875 1730.160156 C 196.917969 1729.542969 195.566406 1728.515625 194.558594 1727.183594 C 193.554688 1725.855469 192.929688 1724.277344 192.753906 1722.617188 C 177.898438 1658.621094 315.539062 1570.714844 390.367188 1533.277344 C 401.066406 1528.488281 412.09375 1524.484375 423.371094 1521.300781 C 451.804688 1512.386719 484.078125 1502.285156 496.511719 1477.601562 C 505.195312 1460.277344 493.722656 1438.015625 481.5625 1414.425781 C 469.402344 1390.839844 455.371094 1363.6875 462.59375 1341.5625 C 466.753906 1328.761719 477.632812 1318.113281 495.734375 1309.0625 C 524.898438 1294.433594 546.429688 1318.980469 573.71875 1355.183594 C 583.777344 1368.578125 593.285156 1381.238281 602.972656 1388.507812 C 629.167969 1408.164062 657.007812 1421.558594 683.929688 1434.496094 C 727.632812 1455.523438 768.910156 1475.359375 800.585938 1519.703125 C 823.445312 1551.699219 832.3125 1588.589844 841.726562 1627.71875 C 850.460938 1663.832031 859.511719 1701.132812 880.355469 1734.457031 C 891.1875 1751.78125 901.703125 1770.15625 911.851562 1787.941406 C 928.488281 1816.96875 945.675781 1847 965.242188 1874.382812 C 974.832031 1887.109375 985.390625 1899.074219 996.828125 1910.175781 L 997.105469 1910.449219 L 1016.210938 1910.449219 C 1013.058594 1907.109375 1009.8125 1903.820312 1006.65625 1900.574219 C 995.875 1890.011719 985.894531 1878.660156 976.808594 1866.609375 Z M 976.808594 1866.609375 " fill-opacity="1" fill-rule="nonzero"/><path fill="#ffffff" d="M 259.585938 1175.582031 C 245.140625 1167.8125 231.519531 1160.449219 219.359375 1153.136719 C 193.804688 1137.191406 169.367188 1119.519531 146.21875 1100.25 C 89.628906 1055.222656 36.101562 1012.664062 -64.464844 1019.246094 L -64.464844 1032.960938 C 31.527344 1026.46875 80.714844 1065.644531 137.625 1110.992188 C 161.269531 1130.628906 186.207031 1148.648438 212.273438 1164.929688 C 224.753906 1172.382812 238.511719 1179.789062 253.09375 1187.785156 C 287.195312 1206.070312 322.484375 1225.179688 343.695312 1246.390625 C 347.765625 1250.457031 346.941406 1266.960938 346.53125 1274.914062 C 346.53125 1277.886719 346.257812 1280.582031 346.257812 1282.730469 C 346.257812 1339.824219 331.125 1389.925781 257.300781 1449.03125 C 243.585938 1460 226.902344 1466.308594 209.257812 1472.9375 C 190.105469 1480.207031 170.265625 1487.703125 154.082031 1501.828125 C 32.898438 1607.742188 -95.960938 1763.4375 -34.480469 1910.632812 L -19.484375 1910.632812 C -83.253906 1769.378906 43.917969 1616.335938 163.363281 1512.023438 C 177.625 1499.496094 195.359375 1492.777344 214.332031 1485.644531 C 232.203125 1478.882812 250.902344 1471.933594 266.078125 1459.589844 C 322.578125 1414.382812 360.199219 1367.023438 360.199219 1282.59375 C 360.199219 1280.628906 360.199219 1278.023438 360.472656 1275.460938 C 361.15625 1261.75 361.980469 1244.925781 353.617188 1236.5625 C 330.757812 1213.933594 294.601562 1194.460938 259.585938 1175.582031 Z M 259.585938 1175.582031 " fill-opacity="1" fill-rule="nonzero"/><path fill="#ffffff" d="M 86.886719 1234.457031 C 77.742188 1219.007812 68.328125 1203.007812 49.859375 1191.945312 C 22.796875 1175.71875 -17.382812 1166.53125 -64.421875 1165.523438 L -64.421875 1179.238281 C -23.003906 1180.246094 16.398438 1187.785156 42.863281 1203.648438 C 58.316406 1212.792969 66.453125 1226.503906 75.09375 1241.40625 C 79.902344 1250.015625 85.324219 1258.261719 91.320312 1266.089844 C 125.695312 1309.0625 137.945312 1343.800781 127.890625 1369.402344 C 108.597656 1417.398438 14.707031 1431.476562 -64.101562 1441.945312 L -64.101562 1455.660156 C 18.773438 1444.644531 118.382812 1430.015625 140.734375 1374.382812 C 153.167969 1343.4375 140.734375 1305.175781 102.382812 1257.359375 C 96.675781 1250.105469 91.496094 1242.453125 86.886719 1234.457031 Z M 86.886719 1234.457031 " fill-opacity="1" fill-rule="nonzero"/><path fill="#ffffff" d="M 1119.476562 281.179688 C 1109.964844 277.660156 1101.191406 273.683594 1092.597656 269.84375 C 1071.84375 260.472656 1052.230469 251.558594 1025.765625 249.273438 C 957.882812 243.101562 874.914062 255.992188 787.285156 269.613281 C 635.15625 293.292969 477.816406 317.703125 364.175781 252.792969 C 281.070312 205.296875 240.296875 121.917969 200.847656 41.328125 C 162.449219 -37.070312 126.242188 -111.121094 54.566406 -154.183594 C 21.242188 -174.203125 -20.675781 -181.609375 -64.285156 -180.421875 L -64.285156 -166.707031 C -26.570312 -167.667969 14.433594 -162.136719 47.757812 -142.390625 C 116.050781 -101.25 151.429688 -29.113281 188.871094 47.40625 C 229.234375 129.691406 271.152344 215.125 357.730469 264.722656 C 475.574219 332.058594 642.46875 305.863281 789.753906 283.007812 C 876.605469 269.296875 958.886719 256.722656 1024.898438 262.757812 C 1049.078125 264.953125 1067.683594 273.316406 1087.339844 282.140625 C 1096.070312 286.070312 1105.121094 290.140625 1114.996094 293.84375 C 1209.800781 329.40625 1262.691406 363.644531 1291.902344 408.398438 C 1324.265625 457.996094 1329.933594 523.910156 1310.183594 622.191406 C 1299.855469 673.710938 1279.46875 714.347656 1257.890625 757.363281 C 1243.09375 785.519531 1229.953125 814.519531 1218.53125 844.214844 C 1211.433594 865.019531 1205.4375 886.179688 1200.566406 907.617188 C 1189.6875 951.777344 1178.441406 997.394531 1148.914062 1031.039062 C 1062.835938 1129.457031 934.433594 1185.5 777.59375 1193.179688 C 644.023438 1199.671875 494.179688 1169.640625 366.550781 1110.898438 C 319.515625 1089.414062 274.714844 1060.386719 231.519531 1032.136719 C 173.234375 994.195312 113.308594 954.976562 45.242188 932.394531 C 13.242188 921.695312 -23.875 918.3125 -64.464844 922.152344 L -64.464844 935.867188 C -25.152344 932.027344 10.457031 935.183594 41.035156 945.375 C 107.273438 967.453125 166.652344 1006.171875 223.886719 1043.609375 C 267.632812 1072.042969 312.65625 1101.527344 360.65625 1123.652344 C 480.101562 1178.289062 609.726562 1207.105469 741.070312 1208.21875 C 753.5625 1208.21875 765.925781 1207.914062 778.144531 1207.304688 C 938.773438 1199.488281 1070.699219 1141.800781 1159.105469 1040.503906 C 1190.832031 1004.296875 1202.488281 956.988281 1213.734375 911.273438 C 1218.484375 890.316406 1224.34375 869.621094 1231.285156 849.289062 C 1242.519531 820.035156 1255.445312 791.457031 1270.003906 763.714844 C 1291.03125 721.753906 1312.835938 678.417969 1323.488281 625.070312 C 1343.921875 522.996094 1337.613281 453.925781 1303.144531 401.082031 C 1272.246094 353.679688 1217.390625 317.839844 1119.476562 281.179688 Z M 1119.476562 281.179688 " fill-opacity="1" fill-rule="nonzero"/><path fill="#ffffff" d="M 912.445312 374.707031 C 853.339844 359.941406 794.050781 369.3125 736.683594 378.363281 C 719.539062 381.0625 701.851562 383.847656 684.570312 385.953125 C 670.078125 387.6875 655.496094 389.519531 640.871094 391.347656 C 523.160156 406.109375 401.476562 421.378906 286.144531 395.1875 C 193.257812 374.203125 82.910156 295.351562 58.957031 199.949219 C 52.648438 174.71875 53.46875 145.09375 54.382812 113.097656 C 56.257812 45.808594 58.40625 -30.484375 -20.398438 -60.0625 C -34.546875 -65.082031 -49.453125 -67.632812 -64.464844 -67.605469 L -64.464844 -53.890625 C -51.066406 -53.910156 -37.765625 -51.605469 -25.152344 -47.078125 C 44.464844 -20.933594 42.636719 44.023438 40.714844 112.914062 C 39.847656 144.042969 38.980469 176.179688 45.746094 203.285156 C 60.738281 263.214844 104.121094 308.425781 137.902344 335.851562 C 180.914062 370.867188 233.894531 397.335938 283.128906 408.535156 C 400.789062 435.273438 523.710938 419.871094 642.5625 404.96875 C 657.1875 403.09375 671.769531 401.3125 686.171875 399.574219 C 703.722656 397.472656 721.550781 394.636719 738.832031 391.894531 C 794.828125 383.074219 852.746094 373.929688 909.109375 388.007812 C 967.300781 402.546875 1027.363281 440.394531 1069.785156 489.261719 C 1116.367188 542.835938 1137.53125 603.542969 1129.210938 660.453125 C 1116.457031 749.910156 1065.992188 828.125 979.183594 892.851562 C 823.765625 1008.640625 595.203125 1047.359375 449.382812 1025.785156 C 383.511719 1016.136719 322.027344 985.054688 262.511719 955.25 C 240.160156 943.957031 216.800781 932.394531 193.945312 921.925781 C 158.058594 905.789062 126.0625 876.214844 92.144531 845.039062 C 45.242188 801.292969 -3.394531 756.675781 -64.464844 748.632812 L -64.464844 762.621094 C -8.058594 771.03125 38.066406 813.542969 83 854.683594 C 116.1875 885.308594 150.5625 916.988281 188.457031 934.039062 C 211.3125 944.234375 234.171875 955.84375 256.339844 967.089844 C 316.816406 997.625 379.304688 1029.210938 447.554688 1039.3125 C 596.164062 1061.300781 829.339844 1021.851562 987.59375 903.824219 C 1076.140625 837.769531 1129.851562 754.253906 1143.015625 662.328125 C 1151.65625 601.53125 1129.304688 536.847656 1080.164062 480.210938 C 1035.957031 429.5625 973.195312 390.066406 912.445312 374.707031 Z M 912.445312 374.707031 " fill-opacity="1" fill-rule="nonzero"/><path fill="#ffffff" d="M 576.460938 532.230469 C 547.433594 520.621094 517.035156 509.375 487.734375 498.539062 C 429.222656 476.828125 368.425781 454.382812 314.941406 427.734375 C 297.9375 419.230469 275.628906 420.097656 254.054688 420.96875 C 241.871094 421.90625 229.625 421.675781 217.484375 420.28125 C 186.035156 415.023438 147.5 393.632812 117.421875 375.621094 C 64.394531 343.621094 0.03125 266.917969 -11.394531 198.210938 C -13.910156 183.265625 -15.234375 167.3125 -16.699219 150.445312 C -20.855469 100.433594 -25.609375 44.527344 -64.464844 12.757812 L -64.464844 31.863281 C -38 61.074219 -34.066406 106.925781 -30.273438 151.679688 C -28.8125 168.820312 -27.394531 185.003906 -24.835938 200.5 C -12.71875 273.089844 54.796875 354.046875 110.472656 387.414062 C 141.558594 406.066406 181.554688 428.234375 215.335938 433.859375 C 228.425781 435.421875 241.640625 435.710938 254.785156 434.726562 C 274.625 433.949219 295.148438 433.125 309 440.03125 C 362.941406 467 423.964844 489.582031 482.980469 511.429688 C 512.234375 522.265625 542.40625 533.464844 571.386719 545.03125 C 627.703125 567.566406 724.429688 647.289062 708.523438 719.328125 C 697.554688 768.789062 655.222656 803.210938 621.671875 823.324219 C 580.644531 847.285156 535.550781 863.484375 488.648438 871.09375 C 365.730469 890.019531 171.863281 786.390625 30.339844 710.78125 C 1.359375 695.285156 -25.976562 680.703125 -49.152344 669.09375 C -54.320312 666.488281 -59.4375 663.972656 -64.464844 661.503906 L -64.464844 676.816406 L -55.324219 681.390625 C -32.46875 692.910156 -5.042969 707.492188 23.804688 722.894531 C 155.179688 793.109375 331.035156 887.09375 457.609375 887.09375 C 468.671875 887.132812 479.722656 886.324219 490.660156 884.671875 C 571.84375 872.191406 700.339844 818.664062 721.734375 722.300781 C 739.699219 641.621094 638.308594 556.960938 576.460938 532.230469 Z M 576.460938 532.230469 " fill-opacity="1" fill-rule="nonzero"/><path fill="#ffffff" d="M 274.078125 493.558594 L 264.933594 491.136719 L 236.5 483.546875 C 155.589844 462.0625 44.785156 432.667969 -10.34375 385.539062 C -30.640625 367.804688 -50.113281 337.222656 -64.464844 305.589844 L -64.464844 336.261719 C -51.347656 359.988281 -35.667969 381.519531 -18.753906 395.6875 C 38.613281 444.828125 151.15625 474.726562 233.347656 496.53125 C 243.359375 499.179688 252.867188 501.695312 261.6875 504.117188 L 270.832031 506.539062 C 319.195312 519.429688 360.976562 530.585938 350.234375 589.644531 C 345.660156 613.550781 331.171875 634.488281 307.675781 650.214844 C 272.25 673.9375 218.214844 684.222656 176.253906 675.21875 C 109.832031 661.277344 45.242188 608.339844 -16.972656 557.097656 C -32.972656 543.980469 -48.96875 530.996094 -64.464844 518.746094 L -64.464844 536.207031 C -51.667969 546.402344 -38.730469 557.007812 -25.65625 567.703125 C 37.929688 619.953125 103.707031 673.984375 173.097656 688.839844 C 184.792969 691.304688 196.714844 692.515625 208.664062 692.453125 C 246.285156 692.59375 283.164062 681.964844 314.941406 661.824219 C 341.59375 643.996094 358.324219 619.953125 363.351562 592.296875 C 376.472656 520.984375 322.074219 506.3125 274.078125 493.558594 Z M 274.078125 493.558594 " fill-opacity="1" fill-rule="nonzero"/></svg>